<?xml version="1.0" standalone="no"?>
<!DOCTYPE svg PUBLIC "-//W3C//DTD SVG 20010904//EN"
 "http://www.w3.org/TR/2001/REC-SVG-20010904/DTD/svg10.dtd">
<svg version="1.0" xmlns="http://www.w3.org/2000/svg"
 width="500.000000pt" height="500.000000pt" viewBox="0 0 500.000000 500.000000"
 preserveAspectRatio="xMidYMid meet">
<metadata>
Created by potrace 1.11, written by Peter Selinger 2001-2013
</metadata>
<g transform="translate(0.000000,500.000000) scale(0.100000,-0.100000)"
fill="#000000" stroke="none">
<path d="M2470 4869 c-148 -11 -254 -61 -361 -170 l-65 -67 -75 37 c-71 35
-78 36 -184 36 -104 0 -114 -2 -180 -33 -83 -39 -169 -122 -205 -197 -13 -28
-24 -51 -25 -53 -1 -1 -15 3 -31 9 -31 12 -145 14 -204 4 -168 -28 -310 -134
-394 -295 -45 -86 -64 -161 -60 -243 l3 -66 -37 -7 c-120 -20 -196 -57 -269
-130 -127 -127 -162 -330 -83 -484 l20 -39 -43 -19 c-89 -41 -188 -180 -222
-312 -54 -208 -8 -397 132 -540 l69 -70 -28 -43 c-38 -56 -69 -159 -69 -227
-1 -188 119 -353 301 -411 l68 -22 -16 -36 c-8 -20 -15 -66 -15 -106 -1 -218
170 -455 382 -530 78 -27 192 -35 322 -21 l66 7 17 -61 c107 -380 407 -566
705 -437 l84 36 66 -68 c117 -120 239 -171 406 -172 191 0 384 94 457 223 l21
37 48 -25 c96 -48 228 -62 318 -33 108 35 214 121 259 211 27 55 62 188 62
236 l0 34 63 -8 c195 -24 330 12 465 125 150 125 245 365 198 500 -10 31 -11
43 -3 46 7 1 32 8 57 15 130 35 224 114 281 235 37 78 38 83 36 180 -2 92 -5
106 -38 176 l-37 76 62 57 c76 69 127 146 157 234 33 95 32 257 0 357 -41 125
-107 220 -181 263 -25 14 -47 27 -48 28 -2 1 11 33 30 71 31 64 33 74 33 178
0 104 -2 114 -32 176 -61 123 -176 212 -314 241 l-56 11 8 35 c11 52 4 160
-16 217 -46 135 -168 286 -270 334 -125 60 -281 74 -393 37 -29 -10 -55 -16
-56 -15 -2 2 -16 28 -31 58 -108 215 -366 297 -585 186 l-47 -24 -16 34 c-24
51 -56 84 -121 126 -115 75 -246 109 -386 98z m163 -254 c21 -9 22 -19 3 -34
-40 -33 -25 -131 28 -186 32 -33 33 -36 21 -71 l-12 -36 -28 25 c-26 21 -28
30 -27 80 1 53 0 56 -17 45 -26 -16 -50 -60 -52 -94 -3 -55 1 -69 31 -101 l29
-31 -39 -40 -40 -40 -38 38 -38 38 28 31 c51 57 49 127 -5 184 -29 31 -32 40
-29 84 2 42 -1 55 -23 81 l-26 31 43 5 c24 3 54 7 68 9 29 3 97 -7 123 -18z
m-263 -41 c-29 -75 -61 -109 -128 -134 -29 -11 -52 -17 -52 -14 0 16 97 128
128 149 50 32 64 32 52 -1z m376 -12 c49 -36 134 -126 134 -142 0 -4 -21 0
-47 9 -55 19 -125 83 -141 129 -14 41 1 42 54 4z m-961 -78 c-75 -64 -96 -87
-115 -124 -24 -47 -26 -107 -5 -157 8 -19 15 -36 15 -37 0 -1 -36 7 -80 18
-93 24 -93 25 -56 126 44 120 138 198 241 200 l30 0 -30 -26z m143 -13 c45
-23 122 -88 122 -103 0 -6 -21 -33 -46 -60 -41 -44 -75 -104 -117 -209 -21
-52 -50 -56 -93 -12 -19 19 -33 40 -31 46 2 7 23 15 48 19 78 13 103 64 79
163 -21 87 -23 175 -4 175 3 0 21 -9 42 -19z m1264 -18 c2 -16 -2 -57 -8 -93
-21 -117 -22 -126 -9 -158 14 -31 58 -52 113 -52 26 0 27 -8 5 -40 -26 -38
-40 -50 -60 -52 -39 -3 -49 3 -62 40 -29 84 -79 170 -127 219 l-51 52 26 24
c35 31 75 56 119 72 50 19 50 19 54 -12z m190 -26 c58 -46 106 -127 115 -194
l5 -38 -66 -20 c-36 -12 -66 -20 -66 -19 0 1 9 21 20 45 36 81 22 145 -51 223
-54 60 -29 61 43 3z m-939 -57 c-6 -34 -32 -72 -46 -67 -6 2 -15 15 -20 30 -7
22 -3 31 25 61 28 29 34 32 39 18 4 -9 4 -28 2 -42z m-110 -50 c32 -16 35 -30
7 -30 -28 0 -70 -23 -98 -53 l-23 -24 -37 19 c-78 40 -161 -3 -162 -84 0 -25
8 -46 24 -65 20 -23 32 -28 71 -28 39 0 51 5 70 28 31 35 37 34 18 -3 -9 -19
-14 -49 -11 -75 2 -25 1 -45 -2 -45 -4 0 -28 14 -56 32 -40 26 -59 32 -104 33
-30 0 -68 -4 -83 -8 l-29 -8 7 46 c15 114 109 262 161 254 11 -2 24 0 31 4 6
4 37 13 70 20 59 14 95 10 146 -13z m601 6 c48 -10 77 -23 98 -43 56 -53 98
-144 113 -243 l6 -39 -42 14 c-75 27 -105 20 -210 -43 l-36 -22 5 48 c3 34 -1
59 -13 81 -20 39 -13 53 9 18 21 -31 53 -45 94 -42 59 5 92 58 77 124 -12 58
-121 86 -168 43 -16 -14 -20 -13 -52 18 -20 19 -53 38 -80 45 l-47 11 28 19
c58 37 87 39 218 11z m-1587 -120 c2 -2 -18 -11 -45 -20 -54 -18 -133 -65
-173 -103 l-27 -25 -18 31 c-10 17 -22 31 -26 31 -18 0 -6 20 24 41 46 33 143
58 207 53 30 -2 56 -6 58 -8z m2558 -17 c22 -6 57 -20 77 -30 l37 -19 -25 -37
c-14 -21 -27 -39 -29 -41 -2 -2 -24 12 -48 32 -24 19 -74 50 -113 68 -66 31
-68 33 -39 39 35 7 85 2 140 -12z m-1439 -36 c34 -37 34 -37 15 -57 -19 -19
-20 -19 -51 13 -17 17 -40 31 -51 31 -25 0 -24 14 4 33 33 24 46 21 83 -20z
m224 12 c23 -25 23 -25 3 -25 -12 0 -35 -12 -52 -26 -25 -21 -34 -23 -51 -14
-11 6 -20 13 -20 15 0 14 65 75 79 75 10 0 28 -11 41 -25z m-1226 -24 c17 -19
17 -21 -13 -53 -17 -18 -36 -45 -42 -60 -11 -27 -11 -27 -32 -7 -23 21 -105
49 -144 49 -38 0 -26 15 35 43 100 47 170 57 196 28z m2325 -20 c36 -15 66
-32 68 -37 2 -6 -26 -16 -62 -23 -36 -7 -81 -24 -100 -37 l-35 -23 -14 32 c-7
18 -23 41 -35 51 -29 26 -27 32 17 55 43 24 68 21 161 -18z m-2124 -17 c70
-35 95 -54 148 -111 l28 -30 -34 -26 -34 -26 -52 19 c-28 11 -70 20 -94 20
l-43 0 4 38 c3 34 -7 77 -34 146 -6 16 -4 17 17 12 13 -4 56 -23 94 -42z
m1838 34 c2 -7 -2 -31 -10 -52 -20 -59 -24 -92 -14 -119 9 -24 9 -25 -30 -20
-26 4 -58 -1 -99 -16 l-59 -22 -35 23 c-20 13 -36 26 -36 29 0 13 76 86 120
115 40 27 135 73 152 74 3 0 8 -6 11 -12z m-1221 -109 c5 -33 19 -54 45 -68
41 -21 102 -9 128 26 9 12 14 11 30 -7 l20 -22 -37 -34 c-21 -19 -46 -34 -55
-35 -10 0 -25 -2 -34 -4 -23 -4 -90 28 -116 56 -30 33 -36 76 -15 111 17 30
28 23 34 -23z m548 -14 c0 -41 -17 -70 -57 -98 -67 -46 -134 -42 -191 13 -24
22 -24 23 -4 42 19 19 19 19 53 -1 19 -12 47 -21 62 -21 39 0 87 49 87 88 0
16 3 32 7 36 11 11 43 -33 43 -59z m-1619 -46 c5 -20 20 -52 33 -72 l24 -36
-30 -10 c-17 -6 -52 -27 -79 -46 -27 -19 -54 -35 -59 -35 -6 0 -10 -4 -10 -10
0 -5 6 -10 14 -10 7 0 33 -9 57 -19 24 -11 58 -22 74 -25 17 -2 32 -5 35 -5 3
-1 -1 -5 -8 -9 -17 -11 -23 -48 -12 -78 9 -23 8 -24 -31 -24 -78 0 -169 74
-153 125 14 48 16 78 4 85 -9 6 -9 20 0 66 15 71 39 121 82 170 l32 37 9 -34
c4 -19 12 -50 18 -70z m2700 72 c38 -40 66 -98 84 -173 13 -55 13 -64 0 -71
-19 -10 -19 -30 0 -66 12 -25 12 -31 -3 -59 -9 -17 -28 -40 -42 -50 -31 -24
-104 -45 -129 -37 -16 5 -17 11 -10 42 9 44 6 51 -34 68 l-31 13 45 -1 c39 0
169 40 169 53 0 8 -91 67 -132 86 -33 15 -36 20 -24 33 23 27 43 74 56 134 7
31 15 57 18 57 3 0 17 -13 33 -29z m259 -121 c16 -59 14 -191 -3 -257 l-14
-52 86 -1 c47 0 93 -1 101 -3 14 -2 81 -27 88 -33 2 -1 -12 -22 -31 -47 -19
-25 -43 -66 -52 -90 -14 -38 -24 -48 -60 -62 -65 -24 -73 -39 -38 -72 16 -16
39 -36 51 -45 16 -13 22 -30 23 -58 4 -113 11 -109 -86 -50 -36 22 -67 40 -70
40 -2 0 -32 13 -67 29 -111 52 -272 99 -420 125 -70 12 -72 13 -48 26 30 17
91 14 138 -6 91 -38 38 47 -60 95 -45 23 -75 31 -112 31 -50 0 -127 -27 -141
-49 -14 -24 -197 148 -244 231 -33 57 -46 132 -33 188 7 33 10 35 52 38 31 2
41 0 31 -7 -12 -8 -7 -16 25 -46 43 -40 104 -75 131 -76 11 0 13 -2 5 -6 -19
-7 -59 -75 -83 -138 -20 -54 -23 -71 -11 -69 4 1 42 4 84 8 43 3 91 12 108 21
34 18 66 63 76 108 3 17 10 25 15 20 5 -5 4 -24 -2 -45 -9 -36 -7 -77 7 -99
26 -43 152 -53 267 -21 51 14 65 1 38 -36 -55 -77 -2 -168 149 -254 85 -48 86
-48 82 35 -2 39 0 90 5 112 12 52 1 111 -25 137 -13 14 -39 22 -78 27 -33 3
-59 11 -59 16 1 6 12 31 25 58 24 46 25 47 71 47 26 0 50 4 53 8 3 5 -3 24
-12 43 -14 29 -39 49 -75 61 -4 2 -10 20 -13 41 -2 21 -11 56 -19 80 -23 66
-21 70 28 64 23 -3 51 -2 62 2 25 10 38 -7 55 -69z m-3123 55 c-1 -5 -11 -47
-22 -92 -12 -49 -25 -83 -32 -83 -22 0 -72 -54 -77 -82 -4 -23 0 -27 27 -32
18 -3 42 -4 53 -2 17 4 26 -5 45 -47 13 -27 22 -53 19 -56 -3 -3 -22 -6 -43
-7 -86 -5 -118 -36 -117 -112 1 -26 2 -85 3 -132 1 -47 -2 -95 -6 -107 -8 -21
-4 -21 59 13 36 19 78 43 93 52 46 29 101 93 112 133 10 33 9 43 -9 80 -12 24
-19 45 -17 48 3 2 35 -3 73 -11 174 -38 281 11 251 114 -5 18 -9 39 -9 46 0
23 17 4 23 -26 14 -71 78 -108 197 -115 30 -1 57 -7 59 -12 2 -6 -21 -31 -51
-58 l-55 -47 -47 26 c-89 50 -205 30 -295 -51 -39 -36 -53 -65 -30 -65 6 0 36
7 66 16 55 16 123 12 123 -6 0 -6 -12 -10 -27 -11 -147 -4 -461 -113 -620
-215 l-55 -35 5 73 c5 65 9 74 34 93 42 30 73 66 67 77 -4 6 -29 20 -56 33
-43 20 -53 31 -77 81 -32 67 -76 124 -96 124 -23 0 -35 -55 -36 -162 -1 -67
-4 -79 -25 -99 -33 -31 -30 -45 15 -71 33 -19 45 -36 75 -103 19 -44 34 -81
32 -82 -1 -1 -13 -4 -26 -6 -45 -9 -61 -19 -76 -49 -18 -35 -11 -78 17 -104
13 -12 19 -30 19 -61 l0 -44 -39 32 c-42 33 -50 34 -126 6 -22 -8 -59 -17 -83
-20 -23 -2 -45 -7 -48 -10 -9 -9 119 -91 170 -108 51 -18 102 -12 117 13 12
19 19 6 38 -76 13 -55 15 -76 6 -76 -6 0 -45 11 -85 25 -112 38 -152 33 -212
-29 l-35 -36 -14 43 c-8 24 -14 78 -13 127 0 69 5 96 26 140 47 102 127 179
251 242 l58 29 -47 52 c-111 123 -134 272 -57 374 61 83 163 122 306 118 l88
-2 -8 41 c-11 60 -7 209 6 259 l12 42 65 0 c38 0 63 -4 61 -10z m1545 -135 c6
-14 14 -36 18 -50 l7 -25 -83 0 c-46 0 -84 3 -84 6 0 19 27 80 53 117 l29 43
25 -33 c14 -18 29 -44 35 -58z m-723 51 c9 -6 14 -31 14 -82 0 -86 -16 -124
-86 -206 l-44 -51 -27 71 c-16 40 -41 88 -57 108 l-28 37 28 5 c35 7 132 83
138 108 6 20 38 25 62 10z m408 -29 l22 -12 -20 -57 c-23 -63 -19 -92 16 -138
28 -38 115 -105 173 -135 23 -12 42 -24 42 -26 0 -2 -163 -3 -361 -3 -245 1
-364 -2 -368 -9 -4 -6 -6 -77 -5 -159 0 -81 -3 -156 -8 -165 -11 -22 -34 -23
-95 -2 -94 32 -129 21 -139 -47 -10 -58 -32 -65 -83 -29 -22 17 -41 34 -41 38
0 5 17 16 37 26 69 33 145 89 168 125 14 21 25 54 27 79 2 39 8 48 62 95 67
58 103 94 158 155 l38 42 14 -28 c25 -49 51 -65 96 -59 45 6 132 46 137 63 2
6 -24 34 -58 62 -53 45 -67 52 -104 52 -30 0 -45 5 -49 16 -7 17 -8 124 -2
124 2 0 28 -11 58 -25 84 -39 141 -31 197 29 22 23 27 25 45 13 12 -8 31 -19
43 -25z m604 7 c58 -54 106 -59 191 -20 56 25 72 27 64 5 -3 -9 -6 -42 -6 -74
0 -53 -2 -58 -20 -53 -42 11 -88 -8 -141 -57 l-54 -50 23 -19 c34 -29 125 -53
155 -42 14 6 37 29 51 53 14 24 26 39 26 33 1 -15 98 -118 180 -188 68 -60 73
-66 75 -110 6 -76 35 -111 157 -180 75 -43 77 -45 62 -66 -21 -29 -71 -53 -94
-46 -19 6 -24 16 -21 42 1 7 -5 26 -14 43 -18 35 -48 39 -116 14 -24 -8 -58
-16 -76 -16 l-32 0 62 -54 c74 -64 122 -82 178 -67 32 8 39 8 39 -4 0 -16 -26
-58 -56 -92 l-22 -24 -12 24 c-7 13 -21 34 -32 46 -17 18 -24 20 -44 11 -35
-16 -60 -64 -67 -125 -6 -51 -30 -113 -45 -113 -4 0 -7 169 -7 375 l0 375
-375 0 -375 0 52 29 c77 42 150 98 179 137 33 43 37 86 13 146 l-18 46 37 25
c20 14 40 26 43 26 4 1 22 -13 40 -30z m854 -157 c-7 -7 -55 8 -55 17 0 5 13
4 30 -2 16 -6 27 -13 25 -15z m-1138 -55 l22 -12 -23 -50 c-26 -55 -59 -91
-76 -80 -16 10 -70 107 -70 127 0 9 6 19 13 21 24 10 112 6 134 -6z m1932
-158 c90 -104 69 -254 -52 -385 -50 -54 -97 -79 -97 -52 0 28 80 176 98 182
10 4 27 15 36 25 16 18 16 20 -7 43 -22 22 -25 35 -29 130 -5 118 -3 119 51
57z m-794 -204 c101 -23 103 -23 162 -40 31 -9 54 -18 52 -19 -2 -2 -36 -6
-74 -9 -73 -7 -73 -6 -160 42 -38 22 -64 41 -54 41 2 0 36 -7 74 -15z m-2355
1 c0 -3 -25 -19 -56 -37 -56 -32 -60 -32 -161 -26 -31 1 -8 15 50 31 116 30
167 40 167 32z m2675 -116 c3 -5 -17 -32 -45 -62 -53 -56 -80 -103 -80 -137 0
-24 -12 -27 -29 -8 -11 14 -72 35 -121 43 -14 3 -37 7 -52 10 -21 4 -27 2 -24
-8 2 -7 12 -46 21 -86 14 -58 25 -81 51 -108 l34 -33 -29 -15 c-38 -20 -142
-116 -136 -126 3 -4 34 -18 70 -31 36 -12 65 -27 65 -31 0 -5 -5 -6 -10 -3 -6
4 -21 0 -34 -8 -39 -26 -77 8 -129 113 -29 59 -32 73 -32 160 0 85 3 99 26
135 55 83 132 146 221 180 76 28 219 38 233 15z m-2825 -15 c69 -24 121 -59
172 -113 72 -77 83 -104 82 -202 -1 -95 -22 -163 -69 -224 -38 -50 -56 -59
-94 -43 l-31 13 38 14 c20 7 53 20 72 28 l35 14 -58 53 c-32 29 -70 58 -85 66
-15 7 -28 14 -30 15 -1 1 11 15 27 32 19 22 36 57 50 110 26 95 26 102 3 102
-31 0 -136 -30 -174 -50 l-38 -20 0 25 c0 41 -16 70 -75 133 l-56 61 28 4 c50
8 157 -1 203 -18z m2956 -32 c39 -19 89 -49 111 -67 37 -29 39 -34 27 -51 -8
-10 -14 -33 -14 -51 l0 -32 -42 9 c-52 12 -90 4 -127 -27 l-29 -24 13 37 c7
21 11 47 9 58 -11 60 -19 85 -40 134 -13 29 -24 55 -24 58 0 8 45 -9 116 -44z
m-3221 -17 c-20 -45 -36 -103 -40 -141 -1 -5 2 -22 6 -36 l7 -26 -37 19 c-28
15 -49 18 -93 14 -46 -5 -56 -3 -52 8 3 8 -1 29 -9 49 l-15 35 41 29 c50 35
147 89 173 96 41 10 43 7 19 -47z m810 -176 c0 -104 -3 -190 -6 -190 -13 0
-39 68 -39 101 0 18 -9 51 -20 74 -35 73 -94 79 -121 13 -6 -16 -15 -28 -20
-28 -9 0 -50 53 -69 88 -11 22 -10 23 11 17 33 -11 95 -8 121 6 13 7 48 34 77
61 30 26 58 48 61 48 3 0 5 -85 5 -190z m2832 -17 c33 -32 66 -69 73 -82 12
-23 12 -23 -32 -16 -23 4 -53 13 -65 21 -33 21 -45 18 -91 -22 l-42 -36 0 50
c0 35 5 54 19 66 25 23 33 58 22 90 l-10 25 33 -20 c18 -10 60 -45 93 -76z
m-3883 -98 c62 -72 105 -94 176 -90 l55 3 -45 -16 c-67 -22 -97 -47 -114 -95
-13 -36 -24 -97 -26 -147 -1 -25 -38 40 -70 122 -30 78 -52 220 -41 273 3 14
22 0 65 -50z m3683 -32 c-4 -49 -13 -113 -22 -143 -16 -52 -84 -194 -91 -188
-1 2 -5 26 -9 53 -10 90 -17 120 -36 146 -21 29 -73 58 -113 61 -14 1 -26 8
-26 14 0 8 10 10 33 5 73 -17 130 9 197 89 63 75 73 69 67 -37z m-319 57 c-7
-10 -14 -17 -17 -15 -4 4 18 35 25 35 2 0 -1 -9 -8 -20z m-603 -112 c-42 -132
-99 -241 -146 -282 l-42 -35 33 -31 c18 -17 43 -33 57 -36 18 -5 22 -11 17
-23 -4 -9 -13 -40 -21 -70 -20 -72 -7 -119 57 -217 28 -42 50 -82 50 -88 0 -6
-30 -22 -67 -35 -38 -13 -73 -26 -79 -28 -5 -2 -18 12 -27 31 -9 20 -35 47
-57 62 -48 32 -72 26 -114 -29 -35 -45 -43 -95 -22 -135 l16 -30 -49 -32 c-27
-17 -69 -52 -92 -77 -40 -43 -43 -45 -56 -27 -43 60 -90 94 -130 94 -8 0 -39
-25 -69 -55 -38 -38 -63 -55 -81 -55 -22 0 -24 2 -13 15 26 31 169 133 295
208 204 123 253 172 294 293 35 105 44 188 45 399 0 151 4 165 39 165 31 0
101 39 142 79 22 21 41 35 43 30 2 -5 -8 -46 -23 -91z m-1895 61 c0 -13 83
-63 133 -80 l52 -17 0 -136 c0 -75 -2 -136 -5 -136 -3 1 -15 6 -27 13 -56 31
-120 155 -178 344 -12 40 -12 41 6 30 11 -7 19 -15 19 -18z m1960 -41 c0 -38
56 -144 98 -185 29 -29 39 -46 40 -72 2 -78 101 -114 160 -58 23 22 38 27 78
28 27 0 65 6 84 12 32 11 35 15 36 55 1 48 9 63 19 33 9 -28 77 -74 152 -101
52 -19 61 -25 53 -39 -10 -18 -100 -108 -101 -101 -10 65 -22 86 -59 105 -16
8 -47 15 -69 15 -35 0 -40 -3 -50 -31 -24 -70 -3 -123 59 -149 22 -9 28 -16
21 -23 -8 -8 -20 -3 -40 17 -33 31 -106 56 -150 51 -94 -12 -171 -110 -171
-219 0 -20 3 -36 8 -36 4 0 21 14 37 31 42 43 82 62 113 54 l27 -7 -40 -24
c-38 -24 -164 -86 -195 -96 -10 -3 -25 22 -53 91 -64 159 -69 220 -18 228 28
4 54 18 75 39 15 14 13 19 -24 55 -64 63 -98 156 -104 279 -2 38 1 70 6 70 4
0 8 -10 8 -22z m1175 -29 c11 -32 12 -165 1 -176 -3 -3 -13 3 -23 12 -45 46
-112 51 -203 15 -58 -23 -105 -27 -97 -7 2 6 12 45 22 84 l18 73 29 -21 c41
-29 102 -20 171 25 28 19 56 33 61 32 5 -1 15 -18 21 -37z m-3201 -26 c-11
-136 -60 -245 -132 -295 l-23 -16 34 -26 c18 -14 48 -29 65 -32 33 -7 38 -17
33 -79 -2 -22 -74 -216 -88 -234 -1 -2 -15 2 -30 8 -27 11 -29 16 -29 70 -1
152 -134 259 -257 208 l-37 -16 13 27 c17 33 15 67 -4 107 -13 28 -18 30 -59
27 -25 -2 -55 -10 -68 -18 -24 -16 -54 -73 -46 -86 3 -5 1 -8 -4 -8 -10 0
-102 91 -102 101 0 4 24 15 53 25 63 21 142 70 156 98 8 18 10 14 10 -22 1
-39 4 -44 34 -56 17 -8 59 -16 91 -19 38 -3 62 -10 67 -20 14 -23 65 -40 103
-33 43 8 76 48 76 90 0 24 10 41 38 68 37 35 92 132 92 162 0 9 4 16 9 16 5 0
7 -21 5 -47z m-324 -110 c36 -7 36 -7 10 -33 -19 -19 -23 -19 -49 -6 -40 21
-81 73 -81 103 0 25 1 25 45 -16 25 -23 59 -44 75 -48z m2786 66 c1 -32 -28
-69 -83 -107 -25 -18 -33 -20 -40 -9 -4 7 -19 21 -33 30 l-24 17 29 0 c34 0
99 40 115 71 12 22 35 21 36 -2z m-3524 -192 c67 -79 67 -80 106 -74 26 5 49
19 79 51 l42 44 47 -63 c39 -54 138 -148 209 -199 32 -23 10 -31 -83 -31 -93
0 -220 33 -251 64 -9 9 -57 45 -106 81 -92 67 -175 143 -175 162 0 6 19 8 53
4 43 -5 57 -12 79 -39z m4248 38 c0 -17 -42 -84 -67 -106 -50 -48 -224 -161
-277 -182 -53 -20 -223 -33 -259 -18 -16 6 -12 12 30 46 83 68 174 158 204
205 l30 46 53 -52 c34 -33 61 -51 73 -49 10 2 25 4 34 4 8 1 28 21 43 46 16
24 40 48 55 54 29 10 81 14 81 6z m-2927 -162 c9 -104 40 -214 81 -277 44 -69
108 -123 224 -192 119 -69 245 -153 292 -193 33 -28 34 -30 12 -31 -16 0 -40
17 -72 50 -36 37 -56 50 -77 50 -28 0 -93 -33 -93 -47 -1 -5 -10 -19 -20 -32
l-20 -24 -48 45 c-26 25 -67 58 -90 73 -43 28 -50 39 -32 50 6 3 10 28 10 54
0 50 -23 92 -72 130 l-25 20 -47 -29 c-27 -17 -53 -44 -63 -64 l-16 -35 -64
24 c-103 39 -101 30 -37 129 67 102 78 159 50 242 -21 61 -22 58 18 72 19 7
41 24 50 37 9 14 20 25 25 25 4 0 11 -35 14 -77z m-763 -88 c-7 -8 -17 -12
-22 -9 -6 4 -5 10 3 15 22 14 33 10 19 -6z m-511 -162 c-49 -46 -119 -142
-119 -164 0 -6 -5 -7 -11 -3 -17 10 -4 98 22 152 13 25 47 71 77 102 l54 55
14 -47 14 -47 -51 -48z m789 1 c42 -40 44 -43 17 -32 -16 7 -43 20 -60 29 -16
8 -41 22 -55 29 -23 12 -23 14 -5 20 31 11 52 1 103 -46z m-328 14 c0 -52 36
-114 87 -147 57 -38 157 -72 222 -74 27 -1 47 -5 43 -8 -4 -3 -30 -22 -59 -42
l-51 -36 -24 35 c-16 24 -39 40 -78 54 -105 38 -123 51 -142 105 -17 47 -37
71 -82 96 -17 10 -18 9 -10 -7 9 -19 11 -110 5 -174 -6 -61 -2 -78 29 -114 36
-40 79 -57 167 -65 l62 -6 -33 -52 -33 -52 -35 40 c-37 41 -66 49 -111 28 -26
-12 -57 -57 -57 -84 0 -30 -31 -71 -78 -100 l-46 -29 31 -13 c101 -41 198 -16
227 58 9 22 16 48 16 59 0 22 24 27 37 8 4 -7 8 -53 8 -101 0 -83 -1 -88 -20
-82 -11 4 -41 9 -66 12 -62 7 -81 -12 -97 -101 -7 -38 -23 -84 -36 -103 l-24
-34 -20 25 c-41 53 -74 155 -73 230 0 74 12 152 30 199 18 46 14 56 -21 53
-133 -10 -288 68 -342 173 l-15 29 47 -4 c51 -3 120 11 165 33 26 13 29 12 65
-23 33 -32 87 -64 109 -64 4 0 8 35 9 78 1 118 36 175 130 212 64 25 64 25 64
-12z m3222 1 c66 -34 99 -104 99 -213 l0 -66 37 16 c20 8 54 31 74 51 l38 37
36 -17 c20 -10 56 -20 80 -24 50 -7 53 -16 25 -78 -43 -95 -173 -164 -315
-168 -60 -2 -76 -5 -77 -17 0 -10 -3 -8 -8 5 -13 30 -44 54 -79 61 -29 6 -37
2 -73 -36 -22 -23 -42 -40 -45 -37 -3 2 -19 29 -37 58 l-33 54 68 2 c82 2 151
31 180 77 17 27 18 42 13 111 -8 102 -7 136 7 152 19 23 -7 14 -40 -14 -19
-17 -40 -49 -50 -78 -17 -47 -21 -51 -77 -73 -93 -35 -129 -57 -146 -89 l-15
-30 -30 24 c-16 13 -49 35 -74 48 l-45 24 55 1 c93 1 212 42 268 94 33 29 62
89 62 126 0 30 1 31 33 25 17 -4 48 -16 69 -26z m323 21 c3 -6 -1 -7 -9 -4
-18 7 -21 14 -7 14 6 0 13 -4 16 -10z m-605 -48 c0 -45 -93 -94 -200 -106 -64
-7 -58 1 30 38 36 15 88 40 115 56 28 16 51 29 53 29 1 1 2 -7 2 -17z m-2648
-44 c54 -27 102 -48 108 -48 6 0 9 -4 6 -9 -8 -13 -122 15 -170 42 -21 12 -43
32 -48 45 -4 13 -5 22 0 20 4 -2 51 -24 104 -50z m448 -185 c8 -3 32 -31 52
-64 40 -63 52 -68 99 -43 28 14 33 14 57 -2 139 -88 223 -217 256 -393 15 -78
11 -188 -7 -234 l-13 -32 -19 30 c-54 85 -128 120 -237 112 -40 -2 -86 -10
-102 -16 l-29 -12 22 -15 c12 -9 35 -43 51 -77 34 -68 54 -93 90 -112 28 -14
100 -12 143 4 44 17 46 15 46 -51 0 -71 14 -146 36 -188 43 -84 131 -140 211
-136 43 3 44 2 44 -30 0 -62 35 -120 91 -149 57 -30 140 48 143 134 l1 50 50
0 c149 -1 244 125 245 323 l0 66 47 -14 c118 -36 176 -10 230 102 20 42 43 78
50 81 28 11 10 22 -57 33 -137 23 -232 -15 -283 -115 l-16 -30 -15 37 c-27 64
-30 153 -7 255 30 137 70 215 155 298 94 93 114 103 159 81 19 -9 39 -16 44
-16 9 1 67 77 76 101 3 9 42 31 87 48 91 35 100 36 101 19 3 -41 8 -82 13 -93
3 -8 -13 -25 -37 -41 -61 -40 -107 -89 -113 -123 l-6 -31 -43 38 c-42 36 -143
98 -150 90 -4 -3 -8 -137 -6 -182 1 -36 66 -101 110 -111 17 -4 31 -11 31 -15
0 -5 -16 -2 -35 6 -67 27 -127 13 -237 -58 l-49 -32 68 -43 c105 -66 165 -69
236 -12 36 29 67 33 67 9 0 -20 -30 -84 -55 -116 -27 -35 -26 -38 20 -48 34
-7 64 -31 115 -89 l33 -38 -54 5 c-80 7 -135 -10 -184 -58 -47 -44 -61 -82
-68 -179 -5 -66 3 -78 30 -43 24 30 65 51 131 65 100 21 126 45 122 114 -3 57
-3 58 38 54 l37 -4 -1 -106 c-1 -98 -3 -111 -32 -169 -94 -189 -302 -210 -471
-46 -30 29 -56 47 -58 41 -9 -25 -86 -140 -117 -171 -163 -174 -433 -178 -568
-10 -20 24 -61 81 -93 128 -31 47 -59 86 -61 87 -2 2 -2 0 1 -3 5 -7 -58 -87
-95 -121 -75 -68 -184 -89 -280 -53 -76 28 -132 77 -187 162 -42 67 -113 223
-113 250 0 12 34 14 153 8 4 0 7 -21 7 -46 0 -25 5 -54 11 -66 12 -23 61 -45
116 -54 56 -9 99 -32 134 -72 l32 -36 -5 90 c-4 64 -11 101 -27 131 -39 77
-121 119 -217 111 l-54 -5 33 41 c30 37 91 76 140 90 15 5 13 11 -17 50 -60
79 -59 159 1 105 75 -66 128 -68 231 -9 40 23 74 45 77 50 3 5 -14 22 -37 38
-76 52 -125 72 -175 72 l-48 0 33 20 c51 31 65 78 58 184 -3 49 -7 90 -8 92
-5 4 -132 -75 -161 -101 -34 -29 -37 -30 -37 -9 0 30 -32 70 -86 109 l-54 39
0 57 c0 30 3 58 6 62 3 3 36 -6 72 -20 37 -14 74 -28 82 -30z m-231 -6 c33
-30 36 -36 29 -67 -19 -90 -26 -189 -15 -207 4 -6 -15 -8 -46 -5 -43 3 -67 -2
-130 -28 -42 -18 -77 -36 -77 -40 0 -8 95 -90 124 -107 11 -7 34 -17 49 -23
l28 -10 -34 -30 c-28 -25 -107 -153 -107 -174 0 -13 191 -6 219 8 25 13 31 13
59 -4 37 -23 40 -47 11 -84 -23 -30 -60 -51 -104 -60 -39 -8 -53 2 -60 44 -3
19 -8 36 -9 38 -2 2 -30 -4 -61 -12 -72 -19 -82 -14 -80 31 5 77 -30 121 -86
109 -34 -7 -40 2 -64 94 -17 65 -22 176 -11 240 19 107 106 206 242 278 44 23
81 42 83 42 2 0 20 -15 40 -33z m2219 -1 c87 -44 163 -104 201 -160 57 -82 75
-224 46 -350 -26 -113 -30 -119 -70 -112 -29 6 -39 3 -60 -18 -20 -20 -25 -35
-25 -76 0 -48 -2 -51 -35 -67 -34 -16 -39 -16 -128 6 -50 13 -98 25 -105 28
-10 4 -12 -3 -6 -32 6 -35 6 -36 -14 -24 -11 7 -30 30 -42 50 -22 40 -21 42
25 73 19 13 18 15 -17 69 -33 50 -38 67 -17 67 4 0 10 -12 14 -27 23 -93 77
-125 205 -122 50 2 90 5 90 7 0 21 -79 145 -110 172 -35 31 -37 36 -19 37 11
1 39 13 62 27 45 27 133 104 126 111 -3 2 -40 18 -84 35 -78 32 -115 35 -170
15 -16 -7 -18 -6 -7 6 23 25 5 239 -21 239 -14 0 66 78 81 79 7 1 43 -14 80
-33z m-1222 -248 c24 -23 44 -49 44 -57 0 -37 -86 -121 -123 -121 -23 0 -135
-60 -141 -75 -5 -15 -38 -22 -34 -7 4 17 -16 97 -38 155 -13 33 -24 62 -24 63
0 0 21 -9 46 -22 62 -31 86 -24 154 48 31 32 59 58 64 58 4 0 28 -19 52 -42z
m226 -24 c66 -66 100 -72 167 -30 45 29 49 26 25 -19 -19 -37 -54 -161 -54
-193 0 -23 -2 -22 -45 16 -26 23 -67 46 -99 56 -76 24 -131 66 -146 111 -12
36 -11 38 26 76 21 21 45 39 54 39 9 0 41 -25 72 -56z m1348 -11 c0 -64 57
-114 132 -115 l41 0 -6 -64 c-6 -65 -35 -141 -37 -99 -2 23 -8 60 -15 91 -9
40 -91 53 -147 23 -10 -5 -18 -6 -18 -2 -9 140 -8 184 7 198 20 20 43 3 43
-32z m148 22 c-3 -3 -9 2 -12 12 -6 14 -5 15 5 6 7 -7 10 -15 7 -18z m-1633
-283 c-2 -3 -7 3 -11 12 -10 26 -19 19 -56 -41 -68 -110 -81 -145 -82 -205 -1
-44 -5 -58 -16 -59 -139 -7 -207 -137 -119 -227 61 -62 166 -59 221 8 l32 38
17 -27 c35 -58 143 -80 206 -41 107 65 84 210 -38 241 l-48 12 4 47 c4 54 -17
107 -72 184 l-37 51 60 -56 c33 -31 85 -73 115 -92 111 -71 163 -149 162 -246
0 -95 -54 -185 -130 -217 -39 -17 -126 -18 -156 -3 -33 17 -77 61 -71 71 13
20 -20 5 -39 -18 -11 -15 -39 -35 -61 -45 -181 -82 -353 135 -256 323 24 47
58 81 136 133 87 58 152 123 180 181 l27 56 19 -38 c10 -20 16 -40 13 -42z
m-1485 -9 c25 -51 29 -95 13 -153 -5 -19 -6 -48 -2 -63 7 -28 7 -28 -33 -22
-63 10 -140 42 -178 74 l-35 30 38 1 c51 0 113 34 133 71 9 18 16 54 16 81 -1
59 11 54 48 -19z m2955 7 c0 -53 24 -96 64 -116 12 -6 23 -14 24 -17 3 -8 -94
-81 -124 -94 l-27 -12 -4 61 c-2 33 -10 63 -16 67 -14 8 27 122 54 153 23 24
29 16 29 -42z m-2425 -40 c-16 -31 -23 -18 -8 15 7 15 14 23 16 17 2 -6 -2
-21 -8 -32z m2235 -220 c4 -6 -2 -9 -14 -7 -29 4 -39 17 -13 17 11 0 24 -5 27
-10z m-1289 -365 c30 -45 16 -125 -22 -125 -25 0 -46 46 -39 82 8 36 26 68 37
68 4 0 15 -11 24 -25z"/>
</g>
</svg>
